<?xml version="1.0" encoding="UTF-8" standalone="no"?>
<!-- Created with Inkscape (http://www.inkscape.org/) -->

<svg
   xmlns:dc="http://purl.org/dc/elements/1.1/"
   xmlns:cc="http://creativecommons.org/ns#"
   xmlns:rdf="http://www.w3.org/1999/02/22-rdf-syntax-ns#"
   xmlns:svg="http://www.w3.org/2000/svg"
   xmlns="http://www.w3.org/2000/svg"
   xmlns:xlink="http://www.w3.org/1999/xlink"
   xmlns:sodipodi="http://sodipodi.sourceforge.net/DTD/sodipodi-0.dtd"
   xmlns:inkscape="http://www.inkscape.org/namespaces/inkscape"
   version="1.1"

   viewBox="0 0 200 395.57406"
   id="圖層_1"
   xml:space="preserve"
   inkscape:version="0.48.5 r10040"
   sodipodi:docname="國立臺灣科學教育館.svg"><sodipodi:namedview
   pagecolor="#ffffff"
   bordercolor="#666666"
   borderopacity="1"
   objecttolerance="10"
   gridtolerance="10"
   guidetolerance="10"
   inkscape:pageopacity="0"
   inkscape:pageshadow="2"
   inkscape:window-width="1920"
   inkscape:window-height="1018"
   id="namedview32"
   showgrid="false"
   fit-margin-top="0"
   fit-margin-left="0"
   fit-margin-right="0"
   fit-margin-bottom="0"
   inkscape:zoom="1"
   inkscape:cx="156.6629"
   inkscape:cy="131.05373"
   inkscape:window-x="-8"
   inkscape:window-y="-8"
   inkscape:window-maximized="1"
   inkscape:current-layer="圖層_1" /><metadata
   id="metadata293"><rdf:RDF><cc:Work
       rdf:about=""><dc:format>image/svg+xml</dc:format><dc:type
         rdf:resource="http://purl.org/dc/dcmitype/StillImage" /><dc:title /></cc:Work></rdf:RDF></metadata><defs
   id="defs291">
	<defs
   id="defs101">
		<rect
   width="595.276"
   height="841.89001"
   x="0"
   y="0"
   id="SVGID_5_" />
	</defs>
	<clipPath
   id="SVGID_6_">
		<use
   id="use105"
   style="overflow:visible"
   x="0"
   y="0"
   width="595.276"
   height="841.89001"
   xlink:href="#SVGID_5_" />
	</clipPath>
	
	
	
	
	
	
	
	
	
	
</defs>
<g
   id="g3"
   transform="translate(-207.8891,-163.18804)">
	<defs
   id="defs5">
		<rect
   width="595.276"
   height="841.89001"
   x="0"
   y="0"
   id="SVGID_1_" />
	</defs>
	<clipPath
   id="SVGID_2_">
		<use
   id="use9"
   style="overflow:visible"
   x="0"
   y="0"
   width="595.276"
   height="841.89001"
   xlink:href="#SVGID_1_" />
	</clipPath>
	<path
   d="m 406.241,49.671 1.642,1.52 c -1.642,-1.52 -4.042,-2.21 -5.611,-2.142 -0.137,-3.163 2.897,-6.447 6.113,-4.987 -0.691,2.393 -3.845,2.513 -2.144,5.609"
   clip-path="url(#SVGID_2_)"
   id="path11"
   style="fill:#ffffff"
   inkscape:connector-curvature="0" />
	<path
   d="m 146.576,56.009 c 3.598,-8.826 10.917,-3.581 17.924,-6.231 -7.007,2.65 -9.97,7.501 -17.924,6.231"
   clip-path="url(#SVGID_2_)"
   id="path13"
   style="fill:#ffffff"
   inkscape:connector-curvature="0" />
	<path
   d="m 579.936,109.333 c 3.277,3.027 7.13,0.514 9.398,-1.953 l -1.709,-3.095 -7.689,5.048 z"
   clip-path="url(#SVGID_2_)"
   id="path15"
   style="fill:#ffffff"
   inkscape:connector-curvature="0" />
</g>


<g
   id="g3631"
   transform="matrix(12.432399,0,0,12.432399,-3753.2045,-6501.4485)"><g
     id="g17">
	<defs
   id="defs19">
		<rect
   width="595.276"
   height="841.89001"
   x="0"
   y="0"
   id="SVGID_3_" />
	</defs>
	<clipPath
   id="SVGID_4_">
		<use
   id="use23"
   style="overflow:visible"
   x="0"
   y="0"
   width="595.276"
   height="841.89001"
   xlink:href="#SVGID_3_" />
	</clipPath>
	<g
   clip-path="url(#SVGID_4_)"
   id="g25">
		
		
		
		
	</g>
	<g
   clip-path="url(#SVGID_4_)"
   id="g35">
		
		
		
		
		
		
		
		
		
		
		
		
	</g>
	<g
   clip-path="url(#SVGID_4_)"
   id="g61">
		
		
		
		
		
		
		
		
		
		
		
		
		
	</g>
	<g
   clip-path="url(#SVGID_4_)"
   id="g89">
		
		
	</g>
	<path
   d="m 315.854,543.833 c -0.138,-0.256 -0.288,-0.503 -0.453,-0.738 -0.353,-0.503 -0.762,-0.958 -1.223,-1.36 -0.022,-0.019 -0.047,-0.034 -0.069,-0.054 -0.585,-0.497 -1.247,-0.906 -1.967,-1.204 v 1.971 c 0.322,0.187 0.627,0.401 0.905,0.647 0.445,0.391 0.826,0.849 1.131,1.359 0.041,0.068 0.078,0.143 0.116,0.213 0.43,0.796 0.676,1.704 0.676,2.668 0,0.021 -0.001,0.042 -0.002,0.063 -0.032,3.091 -2.558,5.596 -5.655,5.596 -2.826,0 -5.173,-2.085 -5.588,-4.797 h -1.784 c 0.428,3.691 3.57,6.565 7.372,6.565 4.094,0 7.425,-3.33 7.425,-7.427 0,-0.443 -0.041,-0.878 -0.118,-1.302 -0.138,-0.782 -0.401,-1.522 -0.766,-2.2"
   clip-path="url(#SVGID_4_)"
   id="path95"
   style="fill:#3cbac2"
   inkscape:connector-curvature="0" />
</g><polygon
     points="316.738,540.883 316.738,539.112 316.738,539.106 317.976,539.106 317.976,537.337 316.738,537.337 316.738,536.147 314.971,536.147 314.971,537.337 313.733,537.337 313.733,539.106 314.971,539.106 314.971,539.112 314.971,539.863 "
     id="polygon97"
     style="fill:#abcd03" /><path
     d="m 303.662,541.681 v -2.829 h -0.004 v -1.974 -1.71 -2.032 -2.768 c 0,-3.119 2.537,-5.655 5.655,-5.655 3.12,0 5.657,2.536 5.657,5.655 v 3.866 h 1.768 v -3.866 c 0,-4.094 -3.331,-7.424 -7.425,-7.424 -4.092,0 -7.424,3.33 -7.424,7.424 v 4.254 4.229 2.829 h 0.006 c 0,2.536 2.054,4.592 4.59,4.595 v 1.06 c 0,0.045 0.003,0.089 0.005,0.133 v -2.959 c -1.561,0 -2.828,-1.266 -2.828,-2.828"
     clip-path="url(#SVGID_6_)"
     id="path107"
     style="fill:#3cbac2"
     inkscape:connector-curvature="0" /><path
     d="m 309.313,527.541 c -1.561,0 -2.828,1.266 -2.828,2.828 l 0.005,11.312 h 2.823 c 0.097,0 0.189,0.009 0.283,0.015 0.919,0.045 1.779,0.309 2.532,0.744 0.005,0.004 0.009,0.007 0.014,0.009 V 530.37 c 10e-4,-1.564 -1.266,-2.829 -2.829,-2.829"
     clip-path="url(#SVGID_6_)"
     id="path109"
     style="fill:#f7ab00"
     inkscape:connector-curvature="0" /><path
     d="m 309.313,544.509 h -0.391 -2.433 v 2.959 c 0.023,0.494 0.175,0.952 0.417,1.348 0.497,0.81 1.388,1.35 2.406,1.35 1.021,0 1.909,-0.54 2.408,-1.35 0.264,-0.431 0.421,-0.937 0.421,-1.48 0,-0.536 -0.154,-1.037 -0.413,-1.465 -0.496,-0.814 -1.39,-1.362 -2.415,-1.362"
     clip-path="url(#SVGID_6_)"
     id="path111"
     style="fill:#f7ab00"
     inkscape:connector-curvature="0" /></g>





</svg>