<svg width="2810" height="1585" xmlns="http://www.w3.org/2000/svg" xmlns:xlink="http://www.w3.org/1999/xlink" xml:space="preserve" overflow="hidden"><g transform="translate(-545 -307)"><g><path d="M550 613.033 804.203 1009 1070.85 826.81 1315.53 774.507 1569.73 842.658 1823.94 785.513 2081.06 800.13C2142.57 805.209 2197.73 883.307 2259.23 888.387L2601.8 827.194 2589.47 706.581 2843.67 613.033 3100.8 674.424 3355 738.738 3355 309 3100.8 309 2843.67 309 2589.47 309 2335.27 309 2081.06 309 1823.94 309 1569.73 309 1315.53 309 1061.33 309 804.203 309 550 309 550 613.033Z" fill="#001F3F" fill-rule="evenodd" fill-opacity="1"/><path d="M550 849.968 804.203 907.644 1061.33 1001.58 1315.53 997.155 1563.39 1075.93 1823.94 1093 2081.06 989.975 2351.13 1040.25 2589.47 849.968 2843.67 739.128 3100.8 864.552 3355 864.552 3355 733.295 3100.8 669.125C3015.58 648.221 2928.89 602.524 2843.67 607.872 2758.45 613.219 2674.2 667.181 2589.47 701.21 2504.73 738.156 2429.01 807.37 2335.27 812.049 2241.52 816.728 2114.25 747.171 2027.01 729.283 1939.77 711.395 1888.04 696.274 1811.83 704.721 1769.46 704.721 1652.45 782.98 1569.73 779.964 1487.02 776.948 1400.27 705.099 1315.53 686.626 1230.8 668.153 1146.55 655.999 1061.33 669.125 976.107 682.251 889.425 775.589 804.203 765.38 718.982 755.171 592.367 593.774 550 607.872L550 849.968Z" fill="#002B59" fill-rule="evenodd" fill-opacity="1"/><path d="M550 975.579 804.203 1036.94 1061.33 1147.98 1315.53 1212.26 1569.73 1194.73 1820.76 1380 2081.06 1180.12 2335.27 1133.36 2589.47 1069.08 2843.67 1054.47 3100.8 1147.98 3355 1054.47 3355 858.701 3100.8 858.701C3015.58 837.76 2928.89 735.491 2843.67 733.056 2758.45 730.621 2674.2 807.566 2589.47 844.091 2504.73 880.129 2432.69 922.512 2335.27 952.203 2237.84 981.895 2161.96 984.918 2081.06 984.345 2004.01 972.486 1920.61 986.011 1843.56 974.151 1752.28 951.251 1657.74 911.545 1569.73 905.452 1481.73 899.359 1400.27 934.672 1315.53 937.594L1061.33 922.984 804.203 873.31 550 844.091 550 975.579Z" fill="#083B74" fill-rule="evenodd" fill-opacity="1"/><path d="M550 1352.86 1146.9 1730.52 1356.42 1704.5 1315.53 1385.01 1569.73 1560.37 1823.94 1736 2081.06 1370.4 2335.27 1531.83 2592.64 1496.94 2843.67 1490.16 3100.8 1385.01 3355 1481.46 3355 1048.91 3100.8 1142.43 2843.67 1048.91 2589.47 1063.52 2335.27 1127.82 2081.06 1174.58C1995.84 1200.89 1909.16 1283.21 1823.94 1285.64 1738.72 1288.08 1654.47 1202.35 1569.73 1189.2 1485 1176.04 1400.27 1214.52 1315.53 1206.73L1061.33 1142.43 804.203 1031.37 550 970 550 1352.86Z" fill="#0C488C" fill-rule="evenodd" fill-opacity="1"/><path d="M550 1890 804.203 1890 1061.33 1890 1315.53 1890 1569.73 1890 1823.94 1890 2081.06 1890 2335.27 1890 2589.47 1890 2843.67 1890 3100.8 1890 3355 1890 3355 1475.45C3323.21 1380.27 3249.48 1329.58 3164.26 1318.88 3079.04 1308.18 2939.47 1408.97 2843.67 1411.23 2747.87 1413.48 2674.2 1327.05 2589.47 1332.41 2504.73 1337.76 2420 1437.99 2335.27 1443.34 2250.53 1448.69 2166.28 1335.81 2081.06 1364.52 1995.84 1393.23 1909.16 1583.96 1823.94 1615.58 1738.72 1647.21 1654.47 1593.69 1569.73 1554.28 1485 1514.86 1400.27 1418.53 1315.53 1379.12 1230.8 1339.7 1146.55 1304.67 1061.33 1317.81 976.107 1330.95 889.424 1453.07 804.203 1457.94 718.982 1462.8 592.367 1274.99 550 1347L550 1890Z" fill="#0F55A2" fill-rule="evenodd" fill-opacity="1"/></g></g></svg>